<svg width="24" height="25" viewBox="0 0 24 25" fill="none" xmlns="http://www.w3.org/2000/svg">
<path d="M6.50248 7.47519C6.78492 4.65083 9.16156 2.5 12 2.5C14.8384 2.5 17.2151 4.65083 17.4975 7.47519L17.7841 10.3413C17.8016 10.5156 17.8103 10.6028 17.8207 10.6885C17.9649 11.8717 18.3717 13.0077 19.0113 14.0135C19.0576 14.0865 19.1062 14.1593 19.2034 14.3051L20.0645 15.5968C20.8508 16.7763 21.244 17.366 21.0715 17.8412C21.0388 17.9311 20.9935 18.0158 20.9368 18.0928C20.6371 18.5 19.9283 18.5 18.5108 18.5H5.48923C4.07168 18.5 3.36291 18.5 3.06318 18.0928C3.00651 18.0158 2.96117 17.9311 2.92854 17.8412C2.75601 17.366 3.14916 16.7763 3.93548 15.5968L4.79661 14.3051C4.89378 14.1593 4.94236 14.0865 4.98873 14.0135C5.62832 13.0077 6.03508 11.8717 6.17927 10.6885C6.18972 10.6028 6.19844 10.5156 6.21587 10.3413L6.50248 7.47519Z" fill="white"/>
<path d="M10.0681 21.1294C10.1821 21.2357 10.4332 21.3297 10.7825 21.3967C11.1318 21.4637 11.5597 21.5 12 21.5C12.4403 21.5 12.8682 21.4637 13.2175 21.3967C13.5668 21.3297 13.8179 21.2357 13.9319 21.1294" stroke="white" stroke-width="2" stroke-linecap="round"/>
</svg>
