<svg width="13" height="13" viewBox="0 0 13 13" fill="none" xmlns="http://www.w3.org/2000/svg">
<path d="M5.25 2.28125V2.4375H7.75V2.28125C7.75 1.94973 7.6183 1.63179 7.38388 1.39737C7.14946 1.16295 6.83152 1.03125 6.5 1.03125C6.16848 1.03125 5.85054 1.16295 5.61612 1.39737C5.3817 1.63179 5.25 1.94973 5.25 2.28125ZM4.46875 2.4375V2.28125C4.46875 1.74253 4.68276 1.22587 5.06369 0.844939C5.44462 0.464006 5.96128 0.25 6.5 0.25C7.03872 0.25 7.55538 0.464006 7.93631 0.844939C8.31724 1.22587 8.53125 1.74253 8.53125 2.28125V2.4375H12.0469C12.1505 2.4375 12.2498 2.47866 12.3231 2.55191C12.3963 2.62517 12.4375 2.72452 12.4375 2.82812C12.4375 2.93173 12.3963 3.03108 12.3231 3.10434C12.2498 3.17759 12.1505 3.21875 12.0469 3.21875H11.1353L10.5103 10.6737C10.4628 11.2399 10.2044 11.7675 9.7862 12.1521C9.36801 12.5366 8.82062 12.75 8.2525 12.75H4.7475C4.17944 12.75 3.63212 12.5365 3.214 12.152C2.79588 11.7674 2.53748 11.2398 2.49 10.6737L1.865 3.21875H0.953125C0.849525 3.21875 0.750168 3.17759 0.676911 3.10434C0.603655 3.03108 0.5625 2.93173 0.5625 2.82812C0.5625 2.72452 0.603655 2.62517 0.676911 2.55191C0.750168 2.47866 0.849525 2.4375 0.953125 2.4375H4.46875ZM3.26844 10.6084C3.29954 10.9793 3.46884 11.325 3.74278 11.5769C4.01672 11.8289 4.37532 11.9687 4.7475 11.9688H8.2525C8.62474 11.9688 8.98341 11.829 9.25741 11.577C9.53142 11.3251 9.70076 10.9794 9.73187 10.6084L10.3513 3.21875H2.64875L3.26844 10.6084ZM5.71875 5.32812C5.71875 5.27683 5.70865 5.22603 5.68902 5.17864C5.66938 5.13125 5.64061 5.08818 5.60434 5.05191C5.56807 5.01564 5.525 4.98687 5.47761 4.96723C5.43022 4.9476 5.37942 4.9375 5.32812 4.9375C5.27683 4.9375 5.22603 4.9476 5.17864 4.96723C5.13125 4.98687 5.08818 5.01564 5.05191 5.05191C5.01564 5.08818 4.98687 5.13125 4.96723 5.17864C4.9476 5.22603 4.9375 5.27683 4.9375 5.32812V9.85938C4.9375 9.91067 4.9476 9.96147 4.96723 10.0089C4.98687 10.0563 5.01564 10.0993 5.05191 10.1356C5.08818 10.1719 5.13125 10.2006 5.17864 10.2203C5.22603 10.2399 5.27683 10.25 5.32812 10.25C5.37942 10.25 5.43022 10.2399 5.47761 10.2203C5.525 10.2006 5.56807 10.1719 5.60434 10.1356C5.64061 10.0993 5.66938 10.0563 5.68902 10.0089C5.70865 9.96147 5.71875 9.91067 5.71875 9.85938V5.32812ZM7.67188 4.9375C7.8875 4.9375 8.0625 5.1125 8.0625 5.32812V9.85938C8.0625 9.96298 8.02135 10.0623 7.94809 10.1356C7.87483 10.2088 7.77548 10.25 7.67188 10.25C7.56827 10.25 7.46892 10.2088 7.39566 10.1356C7.3224 10.0623 7.28125 9.96298 7.28125 9.85938V5.32812C7.28125 5.1125 7.45625 4.9375 7.67188 4.9375Z" fill="#F92727"/>
</svg>
