<svg width="24" height="25" viewBox="0 0 24 25" fill="none" xmlns="http://www.w3.org/2000/svg">
<path d="M13.9931 3.69955L13.9934 3.69974L19.7533 7.72968C19.7533 7.7297 19.7533 7.72972 19.7534 7.72974C20.2226 8.05821 20.6668 8.59677 20.9943 9.22395C21.3217 9.85117 21.51 10.5243 21.51 11.1001V17.8801C21.51 20.1539 19.6638 22.0001 17.39 22.0001H6.60999C4.33754 22.0001 2.48999 20.1453 2.48999 17.8701V10.9701C2.48999 10.4356 2.66038 9.79655 2.95857 9.19092C3.25662 8.58558 3.66106 8.05694 4.08751 7.72431L4.08761 7.72423L9.09624 3.8153C9.09645 3.81513 9.09667 3.81496 9.09689 3.81479C10.4337 2.7795 12.6028 2.72547 13.9931 3.69955ZM12 19.7501C12.6861 19.7501 13.25 19.1862 13.25 18.5001V15.5001C13.25 14.8139 12.6861 14.2501 12 14.2501C11.3138 14.2501 10.75 14.8139 10.75 15.5001V18.5001C10.75 19.1862 11.3138 19.7501 12 19.7501Z" stroke="#A6A6A6"/>
</svg>
