<svg width="18" height="18" viewBox="0 0 18 18" fill="none" xmlns="http://www.w3.org/2000/svg">
<g clip-path="url(#clip0_21_370)">
<path fill-rule="evenodd" clip-rule="evenodd" d="M4.91461 1.20415C5.33206 0.995438 5.83008 0.75 6.75 0.75C7.66988 0.75 8.16795 0.995415 8.5854 1.20412L8.59733 1.2101C8.92403 1.37348 9.17692 1.49993 9.75 1.49995C10.6778 1.49998 11.2274 1.15403 11.4106 1.01634C11.6958 0.80199 12.0328 0.820065 12.2654 0.927675C12.5011 1.03667 12.75 1.29674 12.75 1.68111V9.75H15C16.2422 9.75 17.25 10.7561 17.25 11.9992V14.25C17.25 14.9437 17.0744 15.5139 16.7725 15.9668C16.4737 16.415 16.0806 16.7044 15.7104 16.8895C15.3431 17.0732 14.9849 17.1613 14.7248 17.2046C14.5687 17.2306 14.4087 17.2503 14.25 17.25H3.75C3.05627 17.25 2.4861 17.0744 2.03319 16.7725C1.58498 16.4737 1.29554 16.0806 1.11043 15.7104C0.92679 15.3431 0.838702 14.9849 0.79536 14.7249C0.773392 14.593 0.76212 14.4816 0.7563 14.4001C0.751455 14.3323 0.750023 14.2921 0.75 14.25V1.6811C0.75 1.29674 0.99888 1.03667 1.23454 0.927675C1.46721 0.820057 1.80421 0.801983 2.08942 1.01632C2.27264 1.15401 2.82217 1.49995 3.75 1.49995C4.32311 1.49995 4.57596 1.3735 4.90266 1.21012L4.91461 1.20415ZM2.25249 14.25L2.25 2.76278C2.65514 2.89933 3.15549 2.99995 3.75 2.99995C4.66992 2.99995 5.16794 2.75452 5.58539 2.54581L5.59734 2.53983C5.92404 2.37645 6.17689 2.25 6.75 2.25C7.32313 2.25 7.57597 2.37644 7.90267 2.53982L7.9146 2.54579C8.33205 2.75449 8.83005 2.99992 9.75 2.99995C10.3445 2.99997 10.8448 2.89936 11.25 2.7628V14.25C11.25 14.8372 11.3758 15.336 11.5976 15.75H3.75C3.31873 15.75 3.04515 15.6443 2.86525 15.5244C2.68064 15.4013 2.54821 15.2319 2.45207 15.0396C2.35446 14.8444 2.30192 14.6401 2.27495 14.4783C2.26228 14.4022 2.25459 14.3268 2.25249 14.25ZM14.4783 15.725C14.6401 15.6981 14.8444 15.6455 15.0396 15.5479C15.2319 15.4518 15.4013 15.3193 15.5244 15.1348C15.6443 14.9548 15.75 14.6812 15.75 14.25V11.9992C15.75 11.5855 15.4147 11.25 15 11.25H12.75V14.25C12.75 14.6812 12.8557 14.9548 12.9756 15.1348C13.0987 15.3193 13.2681 15.4518 13.4604 15.5479C13.6556 15.6455 13.8599 15.6981 14.0218 15.725C14.1009 15.7382 14.1652 15.7445 14.2067 15.7475C14.2972 15.754 14.3893 15.7399 14.4783 15.725Z" fill="#8CB16D"/>
<path d="M3.75 6C3.75 5.58579 4.08579 5.25 4.5 5.25H9C9.41423 5.25 9.75 5.58579 9.75 6C9.75 6.41422 9.41423 6.75 9 6.75H4.5C4.08579 6.75 3.75 6.41422 3.75 6Z" fill="#8CB16D"/>
<path d="M3.75 9C3.75 8.58578 4.08579 8.25 4.5 8.25H9C9.41423 8.25 9.75 8.58578 9.75 9C9.75 9.41422 9.41423 9.75 9 9.75H4.5C4.08579 9.75 3.75 9.41422 3.75 9Z" fill="#8CB16D"/>
<path d="M3.75 12C3.75 11.5858 4.08579 11.25 4.5 11.25H9C9.41423 11.25 9.75 11.5858 9.75 12C9.75 12.4142 9.41423 12.75 9 12.75H4.5C4.08579 12.75 3.75 12.4142 3.75 12Z" fill="#8CB16D"/>
</g>
<defs>
<clipPath id="clip0_21_370">
<rect width="18" height="18" fill="white"/>
</clipPath>
</defs>
</svg>
