<svg width="18" height="18" viewBox="0 0 18 18" fill="none" xmlns="http://www.w3.org/2000/svg">
<path d="M11.0625 2.8125C11.4272 2.8125 11.7769 2.95737 12.0348 3.21523C12.2926 3.47309 12.4375 3.82283 12.4375 4.1875V6.9375H13.8125C14.1772 6.9375 14.5269 7.08237 14.7848 7.34023C15.0426 7.59809 15.1875 7.94783 15.1875 8.3125V13.8125C15.3698 13.8125 15.5447 13.8849 15.6736 14.0139C15.8026 14.1428 15.875 14.3177 15.875 14.5C15.875 14.6823 15.8026 14.8572 15.6736 14.9861C15.5447 15.1151 15.3698 15.1875 15.1875 15.1875H2.8125C2.63016 15.1875 2.4553 15.1151 2.32636 14.9861C2.19743 14.8572 2.125 14.6823 2.125 14.5C2.125 14.3177 2.19743 14.1428 2.32636 14.0139C2.4553 13.8849 2.63016 13.8125 2.8125 13.8125V6.9375C2.8125 6.57283 2.95737 6.22309 3.21523 5.96523C3.47309 5.70737 3.82283 5.5625 4.1875 5.5625H5.5625V4.1875C5.5625 3.82283 5.70737 3.47309 5.96523 3.21523C6.22309 2.95737 6.57283 2.8125 6.9375 2.8125H11.0625ZM5.5625 6.9375H4.1875V13.8125H5.5625V6.9375ZM13.8125 8.3125H12.4375V13.8125H13.8125V8.3125ZM11.0625 4.1875H6.9375V13.8125H11.0625V4.1875ZM9.6875 11.0625V12.4375H8.3125V11.0625H9.6875ZM9.6875 8.3125V9.6875H8.3125V8.3125H9.6875ZM9.6875 5.5625V6.9375H8.3125V5.5625H9.6875Z" fill="#8CB16D"/>
</svg>
