<svg width="15" height="17" viewBox="0 0 15 17" fill="none" xmlns="http://www.w3.org/2000/svg">
<path fill-rule="evenodd" clip-rule="evenodd" d="M7.43269 9.57158C8.00119 9.57158 8.54642 9.34582 8.94851 8.94393C9.3506 8.54204 9.57664 7.99692 9.57692 7.42842C9.57692 6.85973 9.35101 6.31433 8.94889 5.91221C8.54677 5.51009 8.00137 5.28418 7.43269 5.28418C6.864 5.28418 6.31861 5.51009 5.91648 5.91221C5.51436 6.31433 5.28845 6.85973 5.28845 7.42842C5.28874 7.99692 5.51477 8.54204 5.91686 8.94393C6.31895 9.34582 6.86419 9.57158 7.43269 9.57158Z" stroke="#8CB16D" stroke-width="2" stroke-linecap="square"/>
<path fill-rule="evenodd" clip-rule="evenodd" d="M13.8654 7.42842C13.8654 12.7858 8.50482 16 7.43271 16C6.36059 16 1 12.7858 1 7.42842C1.00114 5.7231 1.67937 4.08802 2.88561 2.88258C4.09186 1.67714 5.72739 1 7.43271 1C10.9846 1 13.8654 3.87864 13.8654 7.42842Z" stroke="#8CB16D" stroke-width="2" stroke-linecap="square"/>
</svg>
