<svg width="30" height="30" viewBox="0 0 30 30" fill="none" xmlns="http://www.w3.org/2000/svg">
<path fill-rule="evenodd" clip-rule="evenodd" d="M15.4975 22.255C17.3512 21.2935 23.75 17.5204 23.75 11.25C23.75 6.41751 19.8325 2.5 15 2.5C10.1675 2.5 6.25 6.41751 6.25 11.25C6.25 17.5204 12.6488 21.2935 14.5025 22.255C14.8185 22.4189 15.1815 22.4189 15.4975 22.255ZM15 15C17.0711 15 18.75 13.3211 18.75 11.25C18.75 9.17894 17.0711 7.5 15 7.5C12.9289 7.5 11.25 9.17894 11.25 11.25C11.25 13.3211 12.9289 15 15 15Z" fill="#FF6868" fill-opacity="0.24"/>
<path d="M23 11.25C23 14.1134 21.541 16.4454 19.7863 18.2153C18.0322 19.9845 16.0454 21.1259 15.1522 21.5891L15.8429 22.9207C16.8034 22.4225 18.9427 21.1966 20.8515 19.2714C22.7596 17.3468 24.5 14.657 24.5 11.25H23ZM15 3.25C19.4182 3.25 23 6.83172 23 11.25H24.5C24.5 6.0033 20.2467 1.75 15 1.75V3.25ZM7 11.25C7 6.83172 10.5817 3.25 15 3.25V1.75C9.7533 1.75 5.5 6.0033 5.5 11.25H7ZM14.8477 21.5891C13.9546 21.1259 11.9678 19.9845 10.2137 18.2153C8.45896 16.4454 7 14.1134 7 11.25H5.5C5.5 14.657 7.24044 17.3468 9.14849 19.2714C11.0572 21.1966 13.1966 22.4225 14.1571 22.9207L14.8477 21.5891ZM15.1522 21.5891C15.0526 21.6409 14.9474 21.6409 14.8477 21.5891L14.1571 22.9207C14.6897 23.197 15.3102 23.197 15.8429 22.9207L15.1522 21.5891ZM18 11.25C18 12.9069 16.6569 14.25 15 14.25V15.75C17.4852 15.75 19.5 13.7352 19.5 11.25H18ZM15 8.25C16.6569 8.25 18 9.59315 18 11.25H19.5C19.5 8.76472 17.4852 6.75 15 6.75V8.25ZM12 11.25C12 9.59315 13.3431 8.25 15 8.25V6.75C12.5147 6.75 10.5 8.76472 10.5 11.25H12ZM15 14.25C13.3431 14.25 12 12.9069 12 11.25H10.5C10.5 13.7352 12.5147 15.75 15 15.75V14.25Z" fill="#FF6868"/>
<path d="M24.7428 21.875C25.7301 22.4451 26.25 23.0918 26.25 23.75C26.25 24.4082 25.7301 25.0549 24.7428 25.625C23.7554 26.1951 22.3352 26.6685 20.625 26.9976C18.9148 27.3268 16.9748 27.5 15 27.5C13.0252 27.5 11.0852 27.3268 9.375 26.9976C7.66479 26.6685 6.24461 26.1951 5.25721 25.625C4.26982 25.0549 3.75 24.4082 3.75 23.75C3.75 23.0918 4.26982 22.4451 5.25721 21.875" stroke="#FF6868" stroke-width="2" stroke-linecap="round"/>
</svg>
