<svg width="212" height="188" viewBox="0 0 212 188" fill="none" xmlns="http://www.w3.org/2000/svg">
<g clip-path="url(#clip0_142_6896)">
<path d="M164.256 166.184L167.029 155.86C172.423 154.35 178.102 154.183 183.575 155.373C174.685 159.865 172.991 171.964 166.052 179.121C163.871 181.337 161.221 183.032 158.297 184.082C155.374 185.131 152.252 185.507 149.164 185.182L142.011 187.645C142.217 182.623 143.507 177.706 145.791 173.232C148.074 168.758 151.298 164.834 155.24 161.73C157.469 160.01 159.905 158.579 162.49 157.47C163.115 161.793 164.256 166.184 164.256 166.184Z" fill="#F2F2F2"/>
<path d="M34.6392 151.506L29.9597 134.082C20.8562 131.533 11.2699 131.251 2.03308 133.26C17.038 140.841 19.8968 161.26 31.6076 173.341C35.2889 177.081 39.7623 179.942 44.6964 181.713C49.6306 183.483 54.8988 184.118 60.1109 183.57L72.1828 187.726C71.8352 179.251 69.6592 170.953 65.8046 163.402C61.9501 155.851 56.5088 149.228 49.8555 143.989C46.0939 141.087 41.9829 138.671 37.6193 136.799C36.565 144.094 34.6392 151.506 34.6392 151.506Z" fill="#F2F2F2"/>
<path d="M155.483 44.6688V16.3754C155.483 12.0324 153.762 7.86724 150.699 4.79625C147.637 1.72527 143.482 0 139.151 0H79.3646C75.0329 8.20575e-07 70.8787 1.72527 67.8158 4.79626C64.7528 7.86725 63.0321 12.0324 63.0321 16.3754V171.595C63.0321 175.938 64.7528 180.103 67.8158 183.174C70.8787 186.245 75.0329 187.971 79.3645 187.971H139.151C143.482 187.971 147.637 186.245 150.699 183.174C153.762 180.103 155.483 175.938 155.483 171.595V64.8085C155.618 64.8085 155.752 64.7818 155.877 64.7299C156.002 64.678 156.116 64.6019 156.212 64.506C156.307 64.4101 156.383 64.2963 156.435 64.171C156.487 64.0457 156.513 63.9114 156.513 63.7757V45.7016C156.513 45.4277 156.405 45.165 156.212 44.9713C156.018 44.7776 155.756 44.6688 155.483 44.6688Z" fill="#3F3D56"/>
<path d="M152.007 16.4879V171.483C152.008 174.703 150.741 177.793 148.482 180.081C146.224 182.369 143.156 183.672 139.945 183.706C139.901 183.71 139.856 183.712 139.812 183.711H79.7345C76.5002 183.711 73.3983 182.422 71.1113 180.129C68.8242 177.836 67.5392 174.726 67.5389 171.483V16.4879C67.5392 13.245 68.8242 10.1351 71.1113 7.84199C73.3983 5.54892 76.5001 4.26055 79.7345 4.26025H87.0252C86.6668 5.14273 86.5302 6.1 86.6275 7.04783C86.7247 7.99566 87.0528 8.90501 87.5828 9.69586C88.1129 10.4867 88.8287 11.1348 89.6672 11.5832C90.5058 12.0315 91.4414 12.2664 92.3917 12.2671H126.643C127.592 12.2644 128.527 12.0283 129.364 11.5793C130.201 11.1302 130.916 10.4821 131.445 9.69169C131.974 8.90128 132.302 7.99275 132.399 7.04578C132.497 6.09881 132.361 5.14234 132.004 4.26025H139.812C143.046 4.26055 146.148 5.54891 148.435 7.84198C150.722 10.1351 152.007 13.245 152.007 16.4879Z" fill="white"/>
<path d="M63.3625 60.4973C62.9939 60.4969 62.6405 60.3499 62.3799 60.0886C62.1193 59.8272 61.9727 59.4729 61.9722 59.1034V49.6245C61.9728 49.2552 62.1195 48.9012 62.3802 48.6402C62.6408 48.3792 62.9941 48.2327 63.3625 48.2327C63.7309 48.2327 64.0842 48.3792 64.3449 48.6402C64.6055 48.9012 64.7523 49.2552 64.7528 49.6245V59.1034C64.7524 59.4729 64.6058 59.8272 64.3451 60.0886C64.0845 60.3499 63.7311 60.4969 63.3625 60.4973Z" fill="#3F3D56"/>
<path d="M63.0844 42.0972C62.7158 42.0967 62.3625 41.9497 62.1018 41.6884C61.8412 41.4271 61.6946 41.0728 61.6942 40.7032V31.2244C61.6947 30.855 61.8414 30.501 62.1021 30.2401C62.3628 29.9791 62.7161 29.8325 63.0844 29.8325C63.4528 29.8325 63.8061 29.9791 64.0668 30.2401C64.3275 30.501 64.4742 30.855 64.4747 31.2244V40.7032C64.4743 41.0728 64.3277 41.4271 64.067 41.6884C63.8064 41.9497 63.453 42.0967 63.0844 42.0972Z" fill="#3F3D56"/>
<path d="M100.066 5.85464C100.067 5.48508 100.213 5.13077 100.474 4.86945C100.734 4.60813 101.088 4.46113 101.456 4.46069H110.91C111.279 4.46124 111.632 4.60835 111.892 4.86971C112.152 5.13106 112.299 5.4853 112.299 5.85464C112.299 6.22398 112.152 6.57822 111.892 6.83957C111.632 7.10093 111.279 7.24804 110.91 7.24859H101.456C101.088 7.24815 100.734 7.10115 100.474 6.83983C100.213 6.57851 100.067 6.22421 100.066 5.85464Z" fill="white"/>
<path d="M63.3625 76.667C62.9939 76.6666 62.6405 76.5196 62.3799 76.2582C62.1193 75.9969 61.9727 75.6426 61.9722 75.273V65.7942C61.9728 65.4249 62.1195 65.0709 62.3802 64.8099C62.6408 64.5489 62.9941 64.4023 63.3625 64.4023C63.7309 64.4023 64.0842 64.5489 64.3449 64.8099C64.6055 65.0709 64.7523 65.4249 64.7528 65.7942V75.273C64.7524 75.6426 64.6058 75.9969 64.3451 76.2582C64.0845 76.5196 63.7311 76.6666 63.3625 76.667Z" fill="#3F3D56"/>
<path d="M116.193 7.24858C116.961 7.24858 117.584 6.62449 117.584 5.85464C117.584 5.08478 116.961 4.46069 116.193 4.46069C115.426 4.46069 114.803 5.08478 114.803 5.85464C114.803 6.62449 115.426 7.24858 116.193 7.24858Z" fill="white"/>
<path d="M103.246 177.7L106.988 177.699L108.768 163.229H103.245L103.246 177.7Z" fill="#9E616A"/>
<path d="M102.291 176.475L103.344 176.475L107.456 174.798L109.66 176.474C110.906 176.475 112.1 176.971 112.981 177.854C113.862 178.737 114.357 179.934 114.357 181.183V181.336L102.291 181.336L102.291 176.475Z" fill="#2F2E41"/>
<path d="M120.63 177.7L124.371 177.699L126.151 163.229H120.629L120.63 177.7Z" fill="#9E616A"/>
<path d="M119.675 176.475L120.728 176.475L124.84 174.798L127.044 176.474H127.044C128.29 176.475 129.484 176.971 130.365 177.854C131.246 178.737 131.74 179.934 131.741 181.183V181.336L119.675 181.336L119.675 176.475Z" fill="#2F2E41"/>
<path d="M123.621 98.5085L94.2214 99.2775L94.7327 113.631C94.7327 113.631 94.2214 117.476 95.244 118.501C96.2665 119.527 96.7778 119.527 96.2665 121.321C95.7552 123.115 98.4566 126.046 98.1285 126.375C97.8004 126.704 97.0335 128.498 97.0335 128.498L99.5899 143.108C99.5899 143.108 101.379 168.483 101.891 168.996C102.402 169.509 102.913 168.996 102.402 170.278C101.891 171.559 101.379 171.047 101.891 171.559C102.344 172.049 102.77 172.562 103.169 173.097H109.35C109.35 173.097 109.816 170.534 109.816 170.278C109.816 170.021 110.327 168.483 110.327 168.227C110.327 167.971 109.875 167.518 109.875 167.518C109.719 166.997 109.613 166.462 109.56 165.92C109.56 165.408 108.026 145.671 108.026 145.671L111.094 120.039L118.508 145.158C118.508 145.158 118.508 167.202 119.019 167.714C119.53 168.227 119.53 167.971 119.275 168.996C119.019 170.021 117.996 169.765 118.763 170.534C119.53 171.303 119.786 170.021 119.53 171.303L119.275 172.584L126.944 172.694C126.944 172.694 127.967 170.534 127.455 169.765C126.944 168.996 126.975 169.206 127.598 167.947C128.222 166.689 128.478 166.433 128.222 166.176C127.967 165.92 127.967 164.557 127.967 164.557L126.688 140.032C126.688 140.032 126.433 114.144 126.433 113.375C126.413 112.979 126.486 112.585 126.645 112.222V111.178L125.666 107.48L123.621 98.5085Z" fill="#2F2E41"/>
<path d="M100.62 47.0289C104.997 47.0289 108.545 43.4714 108.545 39.0831C108.545 34.6947 104.997 31.1372 100.62 31.1372C96.243 31.1372 92.6949 34.6947 92.6949 39.0831C92.6949 43.4714 96.243 47.0289 100.62 47.0289Z" fill="#9E616A"/>
<path d="M97.0191 44.4879L96.6986 44.2302C96.6924 44.2254 96.0837 43.7411 95.5025 43.8258C95.37 43.8479 95.2437 43.8979 95.1319 43.9726C95.0201 44.0472 94.9254 44.1448 94.854 44.2589C94.8132 44.3217 94.7547 44.3709 94.6859 44.4002C94.6171 44.4296 94.5412 44.4378 94.4678 44.4237C93.7138 44.3047 92.3524 42.0678 91.6666 39.8208C91.2435 38.4352 90.7449 35.9244 92.1184 34.5863C92.2248 33.9805 93.3204 28.5199 98.1368 28.3683C103.092 28.2102 106.391 29.2135 107.187 31.1154C107.322 31.439 107.459 31.8198 107.593 32.2474C107.661 32.4559 107.67 32.6796 107.616 32.8926C107.563 33.1055 107.451 33.2991 107.293 33.4508C107.149 33.5908 106.973 33.6929 106.781 33.748C106.588 33.8031 106.385 33.8094 106.189 33.7664C106.165 34.0105 106.101 34.2491 106 34.4725C105.567 35.4134 104.478 36.0274 103.224 36.0369C102.482 36.026 101.747 35.8838 101.053 35.6169L103.058 37.1635L98.2668 36.5658L99.8364 37.4071L99.5221 37.5569C98.5463 37.9904 97.7412 38.736 97.2329 39.677C96.7245 40.618 96.5414 41.7013 96.7123 42.7577L97.0191 44.4879Z" fill="#2F2E41"/>
<path d="M122.177 94.7104C123.292 92.7798 122.23 89.9904 122.23 89.9904C122.23 89.9904 125.115 85.7138 124.407 83.8897L121.01 57.496C121.01 57.496 119.948 54.6569 117.47 53.2373C116.79 52.8478 113.222 53.0009 112.439 53.0075L109.898 51.9179C109.75 52.4585 106.978 46.8241 106.964 47.3845C105.194 47.3845 104.054 47.6293 101.3 48.0942C96.519 48.9021 98.9281 53.2335 99.231 53.7449C99.1091 53.7528 98.988 53.7697 98.8686 53.7953C98.2456 53.9125 96.1218 55.7543 96.1218 55.7543L92.3239 59.1364C86.6004 63.6399 87.8817 70.6668 87.8817 70.6668L96.228 79.0883L92.5717 95.9845C92.5717 95.9845 94.1255 98.4935 93.322 99.6186C92.5185 100.744 100.401 100.421 100.401 100.421C105.841 102.852 125.008 100.797 125.008 100.797C124.743 100.101 122.177 94.7104 122.177 94.7104Z" fill="#E6E6E6"/>
<path d="M0.867399 188H211.133C211.23 188 211.323 187.961 211.392 187.892C211.46 187.823 211.499 187.729 211.499 187.632C211.499 187.534 211.46 187.441 211.392 187.371C211.323 187.302 211.23 187.263 211.133 187.263H0.867399C0.770135 187.263 0.676958 187.302 0.608282 187.371C0.539605 187.441 0.501038 187.534 0.501038 187.632C0.501038 187.729 0.539605 187.823 0.608282 187.892C0.676958 187.961 0.770135 188 0.867399 188Z" fill="#CACACA"/>
<path d="M138.78 179.927C138.78 181.533 138.73 183.126 138.629 184.705C138.585 184.71 138.541 184.712 138.496 184.711H78.4209C75.7028 184.711 73.0626 183.8 70.9192 182.124C68.7758 180.448 67.2521 178.103 66.5897 175.46C66.4736 174.998 66.386 174.53 66.3274 174.058C66.2591 173.536 66.2251 173.01 66.2256 172.483V103.41C70.8481 103.639 75.4403 104.29 79.9453 105.353C80.3866 105.455 80.8248 105.564 81.2599 105.675C81.2877 105.681 81.3155 105.69 81.3432 105.697C81.7845 105.808 82.2227 105.926 82.6578 106.046C91.9451 108.604 100.663 112.907 108.348 118.728C108.789 119.06 109.227 119.4 109.662 119.743L109.746 119.808C110.474 120.384 111.191 120.974 111.896 121.578C112.054 121.711 112.211 121.847 112.365 121.986C112.745 122.314 113.125 122.649 113.495 122.986C121.689 130.381 128.195 139.464 132.565 149.613C132.711 149.944 132.849 150.278 132.988 150.612C133.044 150.748 133.099 150.884 133.155 151.02C133.207 151.144 133.257 151.268 133.306 151.392C136.934 160.465 138.792 170.152 138.78 179.927Z" fill="#3F3D56"/>
<path opacity="0.2" d="M111.06 173.059C111.06 170.165 111.628 167.299 112.732 164.625C113.837 161.951 115.456 159.521 117.497 157.474C119.538 155.428 121.962 153.805 124.629 152.697C127.296 151.59 130.154 151.02 133.041 151.02H133.155C133.099 150.884 133.044 150.748 132.988 150.612C132.849 150.278 132.711 149.944 132.565 149.613H111.06V121.987H112.365C112.211 121.847 112.054 121.711 111.896 121.578C111.19 120.975 110.473 120.385 109.746 119.808L109.662 119.743V120.579H82.6578V106.046C82.2227 105.926 81.7845 105.808 81.3432 105.697C81.3154 105.691 81.2877 105.681 81.2599 105.675V120.579H67.5402V121.987H81.2599V149.613H67.5402V151.02H81.2599V173.059H67.642C67.7006 173.531 67.7882 173.999 67.9043 174.46H81.2599V183.711H82.6578V174.46H109.662V183.711H111.06V174.46H134.621V173.059H111.06ZM109.662 173.059H82.6578V151.02H109.662V173.059ZM109.662 149.613H82.6578V149.062C82.6579 141.881 85.503 134.994 90.5673 129.917C95.6316 124.839 102.5 121.987 109.662 121.987V149.613Z" fill="black"/>
<path d="M94.8301 113.512C94.5525 113.199 94.3467 112.83 94.227 112.429C94.1074 112.028 94.0769 111.606 94.1376 111.192C94.1983 110.778 94.3489 110.382 94.5786 110.033C94.8083 109.683 95.1117 109.389 95.4673 109.17L91.8666 94.9783L96.7893 96.8696L99.5252 110.271C99.8527 110.894 99.9407 111.616 99.7727 112.3C99.6047 112.984 99.1922 113.583 98.6135 113.982C98.0348 114.382 97.33 114.554 96.6327 114.468C95.9354 114.381 95.294 114.041 94.8301 113.512Z" fill="#9E616A"/>
<path d="M88.2038 67.968L87.7591 73.6351C87.7591 73.6351 87.2064 79.861 87.3511 81.0123C87.4959 82.1636 87.7654 89.1943 87.7654 89.1943L92.4513 98.4884L97.7606 97.0689L97.4429 92.7089L97.7606 96.714L98.4685 93.1651L96.6987 87.132L97.7606 85.0027L97.2251 77.8548L88.2038 67.968Z" fill="#E6E6E6"/>
<path d="M210.295 106.206C209.67 105.462 208.783 104.989 207.819 104.884C207.682 104.869 207.544 104.861 207.406 104.861L136.244 104.795C135.729 104.793 135.219 104.897 134.746 105.101C134.272 105.304 133.845 105.603 133.492 105.979C132.811 106.721 132.438 107.697 132.451 108.706L132.441 120.296C132.435 122.396 132.889 124.472 133.77 126.377C133.278 128.246 132.456 130.012 131.343 131.591C130.997 132.091 130.799 132.679 130.771 133.287C130.743 133.895 130.886 134.499 131.185 135.029C131.484 135.559 131.926 135.994 132.461 136.283C132.995 136.572 133.6 136.705 134.206 136.665C134.956 136.618 135.703 136.533 136.445 136.409C138.602 136.071 140.661 135.267 142.478 134.053C143.877 134.494 145.334 134.719 146.8 134.72L196.838 134.767C198.726 134.774 200.595 134.404 202.339 133.68C204.082 132.956 205.665 131.891 206.994 130.548C209.703 127.776 211.208 124.042 211.181 120.161L211.191 108.784C211.207 107.845 210.89 106.932 210.295 106.206Z" fill="#8CB16D"/>
<path d="M191.702 115.312L151.929 115.275C151.815 115.275 151.702 115.252 151.597 115.209C151.492 115.165 151.397 115.101 151.317 115.02C151.237 114.94 151.173 114.844 151.13 114.739C151.086 114.633 151.064 114.52 151.064 114.406C151.064 114.292 151.087 114.18 151.13 114.074C151.174 113.969 151.238 113.874 151.318 113.793C151.398 113.713 151.494 113.649 151.599 113.605C151.704 113.562 151.817 113.539 151.93 113.54L191.704 113.577C191.933 113.577 192.153 113.669 192.315 113.831C192.477 113.994 192.568 114.215 192.568 114.445C192.568 114.675 192.477 114.896 192.314 115.059C192.152 115.221 191.931 115.312 191.702 115.312Z" fill="white"/>
<path d="M191.697 120.638L151.924 120.601C151.81 120.601 151.698 120.578 151.593 120.534C151.488 120.491 151.392 120.427 151.312 120.346C151.232 120.265 151.168 120.17 151.125 120.064C151.081 119.959 151.059 119.846 151.059 119.732C151.059 119.618 151.082 119.506 151.125 119.4C151.169 119.295 151.233 119.2 151.313 119.119C151.394 119.039 151.489 118.975 151.594 118.931C151.699 118.888 151.812 118.865 151.925 118.865L191.699 118.903C191.928 118.903 192.148 118.995 192.31 119.157C192.472 119.32 192.563 119.541 192.563 119.771C192.563 120.001 192.472 120.222 192.309 120.384C192.147 120.547 191.927 120.638 191.697 120.638Z" fill="white"/>
<path d="M156.554 125.931L151.919 125.926C151.805 125.926 151.693 125.904 151.588 125.86C151.483 125.816 151.387 125.752 151.307 125.672C151.227 125.591 151.163 125.495 151.12 125.39C151.076 125.285 151.054 125.172 151.054 125.058C151.054 124.944 151.077 124.831 151.12 124.726C151.164 124.621 151.228 124.525 151.308 124.445C151.389 124.364 151.484 124.3 151.589 124.257C151.694 124.213 151.807 124.191 151.92 124.191L156.555 124.195C156.785 124.196 157.004 124.288 157.166 124.451C157.328 124.614 157.419 124.834 157.418 125.064C157.418 125.294 157.327 125.514 157.165 125.677C157.003 125.839 156.783 125.931 156.554 125.931Z" fill="white"/>
<path d="M1.48776 61.3431C2.11301 60.5997 2.99984 60.1262 3.96411 60.0211C4.10122 60.0062 4.23902 59.9987 4.37693 59.9986L75.5389 59.9319C76.0541 59.9301 76.5641 60.0342 77.0375 60.2379C77.5109 60.4416 77.9376 60.7404 78.2912 61.116C78.9725 61.8585 79.3448 62.8341 79.3316 63.8429L79.3424 75.4332C79.3479 77.5332 78.8941 79.6089 78.0128 81.514C78.5046 83.3833 79.3265 85.1492 80.4396 86.7278C80.7859 87.228 80.9845 87.8159 81.0124 88.4242C81.0403 89.0324 80.8966 89.6362 80.5976 90.1661C80.2986 90.6961 79.8566 91.1307 79.3222 91.4201C78.7879 91.7094 78.183 91.8418 77.577 91.8019C76.827 91.7554 76.0798 91.6702 75.3385 91.5465C73.181 91.2078 71.1224 90.4039 69.3047 89.1902C67.9065 89.6314 66.4493 89.8562 64.9834 89.857L14.9447 89.9038C13.0575 89.9108 11.1878 89.5414 9.44427 88.8172C7.70076 88.093 6.11827 87.0285 4.78883 85.6855C2.08005 82.9132 0.575013 79.1791 0.602237 75.2982L0.591624 63.9215C0.575864 62.9826 0.893488 62.0688 1.48776 61.3431Z" fill="#8CB16D"/>
<path d="M19.2148 69.5827C19.2149 69.3527 19.306 69.1321 19.468 68.9693C19.6301 68.8064 19.85 68.7147 20.0794 68.7142L59.8528 68.677C60.0823 68.6768 60.3025 68.768 60.465 68.9306C60.6274 69.0931 60.7188 69.3137 60.719 69.5439C60.7192 69.774 60.6282 69.9947 60.4661 70.1576C60.304 70.3205 60.0839 70.4121 59.8544 70.4123L20.081 70.4496C19.8516 70.4495 19.6316 70.3582 19.4692 70.1957C19.3068 70.0332 19.2153 69.8127 19.2148 69.5827Z" fill="white"/>
<path d="M19.2198 74.9084C19.2198 74.6784 19.3109 74.4577 19.473 74.2949C19.6351 74.1321 19.8549 74.0404 20.0844 74.0399L59.8577 74.0027C60.0872 74.0025 60.3074 74.0937 60.4699 74.2562C60.6323 74.4188 60.7237 74.6394 60.7239 74.8695C60.7241 75.0996 60.6332 75.3204 60.471 75.4833C60.3089 75.6462 60.0889 75.7378 59.8594 75.738L20.086 75.7752C19.8565 75.7752 19.6365 75.6839 19.4741 75.5214C19.3117 75.3589 19.2203 75.1384 19.2198 74.9084Z" fill="white"/>
<path d="M54.3632 80.2012C54.3632 79.9712 54.4543 79.7505 54.6164 79.5877C54.7784 79.4249 54.9983 79.3332 55.2277 79.3327L59.8627 79.3284C60.0922 79.3282 60.3124 79.4194 60.4749 79.5819C60.6373 79.7445 60.7287 79.9651 60.7289 80.1952C60.7291 80.4253 60.6382 80.6461 60.476 80.809C60.3139 80.9719 60.0939 81.0635 59.8644 81.0637L55.2293 81.068C54.9999 81.068 54.7799 80.9767 54.6175 80.8142C54.4551 80.6517 54.3637 80.4312 54.3632 80.2012Z" fill="white"/>
<path d="M144.817 34.5163C144.421 34.7154 144.073 34.9993 143.797 35.3479C143.522 35.6965 143.327 36.1014 143.224 36.5341C143.122 36.9667 143.115 37.4166 143.205 37.852C143.295 38.2874 143.479 38.6978 143.744 39.0542L137.694 47.9995L143.295 48.0722L148.182 39.5665C148.75 39.0802 149.12 38.402 149.222 37.6604C149.324 36.9189 149.152 36.1655 148.737 35.543C148.322 34.9205 147.694 34.4721 146.972 34.2829C146.249 34.0937 145.483 34.1767 144.817 34.5163Z" fill="#9E616A"/>
<path d="M146.739 42.9518L137.417 60.1369L137.334 60.1424C137.266 60.147 134.3 60.3438 130.678 60.5409C130.067 60.5742 129.707 61.6607 129.07 61.693C128.631 61.7153 127.01 63.7577 126.567 63.7788C122.619 63.9669 120.354 65.776 118.852 65.6352C116.816 65.4651 114.104 59.8491 112.624 58.4361L112.59 58.3991L112.584 58.3486C112.481 57.318 112.731 56.2829 113.293 55.4137C113.855 54.5446 114.695 53.8935 115.676 53.5676C120.419 52.0197 125.455 51.5983 130.389 52.3365L133.194 52.7597L141.711 41.291L146.739 42.9518Z" fill="#E6E6E6"/>
<path d="M197.026 9.67368C196.401 8.9302 195.514 8.45673 194.55 8.35161C194.413 8.33673 194.275 8.32922 194.137 8.3291L122.975 8.26247C122.46 8.26065 121.95 8.36479 121.476 8.56845C121.003 8.77212 120.576 9.07099 120.223 9.44658C119.541 10.189 119.169 11.1647 119.182 12.1735L119.171 23.7638C119.166 25.8638 119.62 27.9394 120.501 29.8445C120.009 31.7139 119.187 33.4797 118.074 35.0584C117.728 35.5585 117.529 36.1465 117.501 36.7547C117.473 37.3629 117.617 37.9667 117.916 38.4967C118.215 39.0267 118.657 39.4613 119.192 39.7507C119.726 40.04 120.331 40.1723 120.937 40.1324C121.687 40.086 122.434 40.0008 123.175 39.8771C125.333 39.5384 127.391 38.7344 129.209 37.5207C130.607 37.962 132.065 38.1868 133.53 38.1876L183.569 38.2344C185.456 38.2413 187.326 37.872 189.07 37.1478C190.813 36.4236 192.396 35.3591 193.725 34.0161C196.434 31.2438 197.939 27.5097 197.912 23.6288L197.922 12.252C197.938 11.3132 197.62 10.3994 197.026 9.67368Z" fill="#8CB16D"/>
<path d="M178.433 18.7799L138.659 18.7426C138.546 18.7425 138.433 18.72 138.328 18.6763C138.223 18.6326 138.128 18.5686 138.048 18.4879C137.967 18.4073 137.904 18.3116 137.86 18.2063C137.817 18.101 137.795 17.9881 137.795 17.8742C137.795 17.7602 137.817 17.6474 137.861 17.5422C137.905 17.437 137.968 17.3414 138.049 17.2609C138.129 17.1804 138.225 17.1166 138.33 17.0731C138.435 17.0296 138.547 17.0072 138.661 17.0073L178.434 17.0446C178.664 17.0448 178.884 17.1364 179.046 17.2993C179.208 17.4621 179.299 17.6829 179.299 17.913C179.299 18.1431 179.207 18.3637 179.045 18.5263C178.882 18.6889 178.662 18.7801 178.433 18.7799Z" fill="white"/>
<path d="M178.428 24.1058L138.654 24.0686C138.425 24.0684 138.205 23.9767 138.043 23.8139C137.881 23.651 137.79 23.4302 137.79 23.2001C137.79 22.97 137.881 22.7494 138.044 22.5868C138.206 22.4242 138.426 22.333 138.656 22.3333L178.429 22.3705C178.659 22.3707 178.879 22.4623 179.041 22.6252C179.203 22.7881 179.294 23.0088 179.294 23.239C179.294 23.4691 179.202 23.6897 179.04 23.8522C178.877 24.0148 178.657 24.106 178.428 24.1058Z" fill="white"/>
<path d="M143.284 29.3986L138.649 29.3943C138.536 29.3941 138.423 29.3716 138.318 29.3279C138.213 29.2842 138.118 29.2202 138.038 29.1395C137.958 29.0589 137.894 28.9632 137.85 28.8579C137.807 28.7526 137.785 28.6397 137.785 28.5258C137.785 28.4118 137.808 28.299 137.851 28.1938C137.895 28.0886 137.959 27.993 138.039 27.9125C138.119 27.832 138.215 27.7682 138.32 27.7247C138.425 27.6812 138.537 27.6588 138.651 27.6589L143.286 27.6633C143.515 27.6639 143.735 27.7556 143.897 27.9185C144.059 28.0813 144.149 28.3019 144.149 28.5317C144.149 28.7616 144.058 28.982 143.896 29.1445C143.734 29.3071 143.514 29.3984 143.284 29.3986Z" fill="white"/>
</g>
<defs>
<clipPath id="clip0_142_6896">
<rect width="211" height="188" fill="white" transform="translate(0.5)"/>
</clipPath>
</defs>
</svg>
