<svg width="212" height="157" viewBox="0 0 212 157" fill="none" xmlns="http://www.w3.org/2000/svg">
<g clip-path="url(#clip0_145_8682)">
<path d="M198.996 141.257C197.032 141.257 195.149 142.037 193.761 143.425C192.372 144.814 191.592 146.697 191.592 148.661C191.592 150.624 192.372 152.507 193.761 153.896C195.149 155.284 197.032 156.064 198.996 156.064C200.96 156.064 202.843 155.284 204.231 153.896C205.62 152.507 206.4 150.624 206.4 148.661C206.4 146.697 205.62 144.814 204.231 143.425C202.843 142.037 200.96 141.257 198.996 141.257Z" fill="#CCCCCC"/>
<path d="M198.293 151.735C198.098 151.736 197.909 151.673 197.753 151.556L197.743 151.549L195.707 149.991C195.613 149.919 195.534 149.829 195.474 149.726C195.415 149.623 195.376 149.509 195.36 149.391C195.345 149.274 195.353 149.154 195.383 149.039C195.414 148.924 195.467 148.817 195.539 148.722C195.612 148.628 195.702 148.549 195.805 148.489C195.908 148.43 196.021 148.391 196.139 148.376C196.257 148.36 196.377 148.368 196.491 148.399C196.606 148.43 196.714 148.483 196.808 148.555L198.127 149.566L201.243 145.501C201.315 145.406 201.406 145.327 201.508 145.268C201.611 145.208 201.725 145.17 201.843 145.154C201.96 145.139 202.08 145.147 202.195 145.177C202.309 145.208 202.417 145.261 202.511 145.333L202.512 145.333L202.492 145.36L202.512 145.333C202.702 145.479 202.827 145.695 202.858 145.933C202.889 146.171 202.825 146.411 202.679 146.602L199.014 151.382C198.929 151.492 198.82 151.581 198.695 151.642C198.57 151.703 198.433 151.735 198.294 151.734L198.293 151.735Z" fill="white"/>
<path d="M182.876 153.103L179.371 153.103L177.704 139.582L182.878 139.583L182.876 153.103Z" fill="#FFB8B8"/>
<path d="M176.867 152.102H183.627V156.358H172.61C172.61 155.799 172.72 155.246 172.934 154.729C173.148 154.213 173.462 153.744 173.857 153.348C174.252 152.953 174.722 152.639 175.238 152.426C175.754 152.212 176.308 152.102 176.867 152.102Z" fill="#2F2E41"/>
<path d="M168.925 153.103L165.419 153.103L163.752 139.582L168.926 139.583L168.925 153.103Z" fill="#FFB8B8"/>
<path d="M162.916 152.102H169.676V156.358H158.659C158.659 155.799 158.769 155.246 158.983 154.729C159.197 154.213 159.51 153.744 159.906 153.348C160.301 152.953 160.77 152.639 161.287 152.426C161.803 152.212 162.357 152.102 162.916 152.102Z" fill="#2F2E41"/>
<path d="M185.577 106.358C185.294 106.047 185.084 105.677 184.96 105.275C184.837 104.874 184.802 104.45 184.86 104.033C184.918 103.617 185.066 103.218 185.295 102.866C185.523 102.513 185.826 102.214 186.183 101.991L185.097 95.5114L188.874 93.8911L190.279 103.064C190.613 103.687 190.708 104.412 190.545 105.1C190.381 105.789 189.97 106.393 189.391 106.8C188.811 107.206 188.103 107.385 187.4 107.304C186.697 107.222 186.048 106.886 185.577 106.358Z" fill="#FFB8B8"/>
<path d="M156.006 103.296C156.336 103.036 156.605 102.706 156.793 102.33C156.981 101.954 157.085 101.542 157.097 101.122C157.109 100.701 157.028 100.284 156.861 99.8981C156.694 99.5124 156.445 99.168 156.13 98.8892L158.271 92.6775L154.814 90.4556L151.913 99.2701C151.48 99.8296 151.267 100.529 151.314 101.235C151.362 101.941 151.667 102.605 152.171 103.101C152.676 103.597 153.345 103.891 154.052 103.927C154.759 103.963 155.454 103.739 156.006 103.296Z" fill="#FFB8B8"/>
<path d="M173.959 57.5358C178.119 57.5358 181.49 54.164 181.49 50.0047C181.49 45.8454 178.119 42.4736 173.959 42.4736C169.8 42.4736 166.428 45.8454 166.428 50.0047C166.428 54.164 169.8 57.5358 173.959 57.5358Z" fill="#FFB8B8"/>
<path d="M155.773 98.6492C155.644 98.6492 155.516 98.631 155.391 98.5952L153.196 97.965C152.846 97.8637 152.55 97.6279 152.372 97.309C152.195 96.9902 152.151 96.6141 152.25 96.2628L156.78 80.2686L163.097 64.7609C163.725 63.2192 165.037 62.2081 166.522 62.1223C167.2 62.0892 167.873 62.2534 168.459 62.595C169.046 62.9366 169.521 63.441 169.827 64.047C170.166 64.6956 170.353 65.4135 170.372 66.1455C170.391 66.8775 170.242 67.604 169.936 68.2694L162.756 83.9719L157.048 97.7957C156.944 98.0481 156.767 98.264 156.54 98.4159C156.313 98.5679 156.046 98.6491 155.773 98.6492Z" fill="#8CB16D"/>
<path d="M178.209 56.32L174.025 56.3944C173.589 56.403 173.157 56.309 172.764 56.1201C172.371 55.9312 172.028 55.6526 171.763 55.3068C171.498 54.961 171.317 54.5576 171.236 54.1293C171.155 53.7009 171.176 53.2595 171.297 52.8407C171.386 52.5381 171.454 52.2293 171.498 51.9169C171.545 51.5762 171.554 51.2314 171.526 50.8886C171.499 50.5454 171.357 50.2214 171.122 49.9698C170.887 49.7181 170.574 49.5537 170.233 49.5035C169.893 49.4533 169.545 49.5203 169.248 49.6935C168.95 49.8667 168.72 50.1358 168.596 50.4568C167.892 50.4668 166.393 50.2374 165.69 50.2475C164.196 46.4178 167.451 41.4064 170.956 39.5242C174.528 37.6053 179.166 39.5575 180.535 43.5568C182.436 43.591 183.98 45.4655 184.225 47.5756C184.47 49.6857 183.602 51.889 182.274 53.5063C180.946 55.1235 179.202 56.3024 178.209 56.32Z" fill="#2F2E41"/>
<path d="M164.455 151.841C164.116 151.839 163.789 151.713 163.537 151.487C163.285 151.26 163.124 150.949 163.087 150.612L161.534 98.4131L181.093 99.8053L181.108 99.9311C185.528 136.929 184.017 149.737 184.001 149.862C183.99 150.051 183.941 150.236 183.855 150.405C183.769 150.575 183.65 150.724 183.504 150.845C183.358 150.966 183.188 151.056 183.006 151.108C182.824 151.161 182.633 151.175 182.445 151.151L178.122 151.254C177.795 151.217 177.491 151.064 177.267 150.822C177.042 150.581 176.912 150.266 176.899 149.937L172.861 112.13C172.836 112.032 172.777 111.946 172.695 111.886C172.613 111.827 172.512 111.799 172.411 111.806C172.307 111.806 172.206 111.842 172.126 111.907C172.045 111.973 171.99 112.065 171.97 112.167L170.41 150.098C170.426 150.45 170.307 150.795 170.076 151.062C169.845 151.328 169.521 151.496 169.17 151.53L164.592 151.834C164.546 151.839 164.5 151.841 164.455 151.841Z" fill="#2F2E41"/>
<path d="M172.57 104.65C172.453 104.65 172.337 104.648 172.219 104.645C166.595 104.475 162.195 100.22 160.981 98.9203C160.826 98.7545 160.715 98.553 160.657 98.3338C160.599 98.1146 160.596 97.8845 160.649 97.664L163.894 83.9381L163.033 72.0051C162.898 70.349 163.115 68.683 163.67 67.1168C164.225 65.5507 165.106 64.1199 166.254 62.9188C167.211 61.908 168.374 61.1148 169.664 60.5929C170.954 60.071 172.341 59.8325 173.732 59.8937C179.206 60.1549 183.526 65.0485 183.565 71.0342C183.625 80.305 183.352 80.9419 183.263 81.1512C180.53 87.5281 182.023 96.4792 182.545 99.0709C182.592 99.3021 182.579 99.5414 182.507 99.7661C182.435 99.9908 182.307 100.193 182.135 100.355C179.13 103.206 175.914 104.65 172.57 104.65Z" fill="#8CB16D"/>
<path d="M186.695 101.161C186.383 101.161 186.08 101.054 185.836 100.86C185.592 100.665 185.421 100.394 185.352 100.089L182.005 85.5071L177.518 68.8397C177.327 68.1329 177.3 67.3917 177.439 66.6729C177.579 65.9541 177.882 65.2769 178.324 64.6933C178.726 64.1464 179.278 63.7276 179.912 63.4877C180.547 63.2477 181.238 63.1968 181.901 63.341C183.351 63.671 184.479 64.885 184.843 66.5093L188.509 82.8307L190.337 99.3704C190.377 99.7331 190.271 100.097 190.043 100.382C189.816 100.667 189.485 100.851 189.122 100.893L186.853 101.152C186.801 101.158 186.748 101.161 186.695 101.161Z" fill="#8CB16D"/>
<path d="M90.3415 15.9446H8.47229C6.3579 15.9446 4.33012 15.1046 2.83502 13.6095C1.33993 12.1145 0.5 10.0867 0.5 7.97229C0.5 5.8579 1.33993 3.83012 2.83502 2.33503C4.33012 0.839933 6.3579 0 8.47229 0H90.3415C92.4559 0 94.4837 0.839933 95.9788 2.33503C97.4739 3.83012 98.3138 5.8579 98.3138 7.97229C98.3138 10.0867 97.4739 12.1145 95.9788 13.6095C94.4837 15.1046 92.4559 15.9446 90.3415 15.9446Z" fill="#E6E6E6"/>
<path d="M8.47241 2.60645C7.04927 2.60645 5.68442 3.17178 4.6781 4.1781C3.67179 5.18441 3.10645 6.54927 3.10645 7.97241C3.10645 9.39555 3.67179 10.7604 4.6781 11.7667C5.68442 12.773 7.04927 13.3384 8.47241 13.3384H90.3417C91.7648 13.3384 93.1297 12.773 94.136 11.7667C95.1423 10.7604 95.7076 9.39555 95.7076 7.97241C95.7076 6.54927 95.1423 5.18441 94.136 4.1781C93.1297 3.17178 91.7648 2.60645 90.3417 2.60645H8.47241Z" fill="white"/>
<path d="M119.273 0.515625C117.31 0.515618 115.426 1.29564 114.038 2.6841C112.649 4.07256 111.869 5.95571 111.869 7.91929C111.869 9.88288 112.649 11.766 114.038 13.1545C115.426 14.543 117.309 15.323 119.273 15.323C121.237 15.323 123.12 14.543 124.508 13.1545C125.897 11.7661 126.677 9.88291 126.677 7.91932C126.677 5.95574 125.897 4.07258 124.508 2.68412C123.12 1.29565 121.237 0.515625 119.273 0.515625Z" fill="#8CB16D"/>
<path d="M118.57 10.9938C118.376 10.9941 118.186 10.931 118.03 10.8141L118.02 10.8068L115.984 9.24935C115.89 9.17708 115.811 9.08693 115.751 8.98405C115.692 8.88116 115.653 8.76756 115.637 8.64974C115.622 8.53192 115.63 8.41217 115.66 8.29736C115.691 8.18254 115.744 8.07489 115.816 7.98057C115.889 7.88625 115.979 7.80709 116.082 7.74764C116.185 7.68818 116.298 7.64957 116.416 7.63404C116.534 7.6185 116.654 7.62633 116.769 7.65707C116.883 7.68782 116.991 7.74089 117.085 7.81324L118.404 8.82453L121.52 4.75894C121.593 4.66468 121.683 4.58558 121.786 4.52615C121.888 4.46672 122.002 4.42813 122.12 4.41257C122.237 4.39702 122.357 4.40481 122.472 4.4355C122.587 4.4662 122.694 4.51919 122.788 4.59145L122.789 4.59165L122.769 4.6185L122.789 4.59165C122.979 4.7378 123.104 4.95342 123.135 5.19119C123.166 5.42897 123.102 5.66947 122.956 5.85993L119.291 10.6398C119.206 10.75 119.097 10.8391 118.972 10.9003C118.848 10.9615 118.71 10.9931 118.571 10.9927L118.57 10.9938Z" fill="white"/>
<path d="M90.3415 42.9275H8.47229C6.3579 42.9275 4.33012 42.0875 2.83502 40.5925C1.33993 39.0974 0.5 37.0696 0.5 34.9552C0.5 32.8408 1.33993 30.813 2.83502 29.3179C4.33012 27.8228 6.3579 26.9829 8.47229 26.9829H90.3415C92.4559 26.9829 94.4837 27.8228 95.9788 29.3179C97.4739 30.813 98.3138 32.8408 98.3138 34.9552C98.3138 37.0696 97.4739 39.0974 95.9788 40.5925C94.4837 42.0875 92.4559 42.9275 90.3415 42.9275Z" fill="#E6E6E6"/>
<path d="M8.47241 29.5894C7.04927 29.5894 5.68442 30.1547 4.6781 31.161C3.67179 32.1673 3.10645 33.5322 3.10645 34.9553C3.10645 36.3785 3.67179 37.7433 4.6781 38.7496C5.68442 39.7559 7.04927 40.3213 8.47241 40.3213H90.3417C91.7648 40.3213 93.1297 39.7559 94.136 38.7496C95.1423 37.7433 95.7076 36.3785 95.7076 34.9553C95.7076 33.5322 95.1423 32.1673 94.136 31.161C93.1297 30.1547 91.7648 29.5894 90.3417 29.5894H8.47241Z" fill="white"/>
<path d="M119.273 27.4985C117.31 27.4985 115.426 28.2786 114.038 29.667C112.649 31.0555 111.869 32.9386 111.869 34.9022C111.869 36.8658 112.649 38.749 114.038 40.1374C115.426 41.5259 117.309 42.3059 119.273 42.3059C121.237 42.3059 123.12 41.5259 124.508 40.1374C125.897 38.749 126.677 36.8658 126.677 34.9022C126.677 32.9387 125.897 31.0555 124.508 29.667C123.12 28.2786 121.237 27.4985 119.273 27.4985Z" fill="#8CB16D"/>
<path d="M118.57 37.9772C118.376 37.9775 118.186 37.9144 118.03 37.7975L118.02 37.7902L115.984 36.2327C115.89 36.1605 115.811 36.0703 115.751 35.9674C115.692 35.8646 115.653 35.751 115.637 35.6331C115.622 35.5153 115.63 35.3956 115.66 35.2808C115.691 35.1659 115.744 35.0583 115.816 34.964C115.889 34.8696 115.979 34.7905 116.082 34.731C116.185 34.6716 116.298 34.633 116.416 34.6174C116.534 34.6019 116.654 34.6097 116.769 34.6405C116.883 34.6712 116.991 34.7243 117.085 34.7966L118.404 35.8079L121.52 31.7423C121.593 31.6481 121.683 31.569 121.786 31.5095C121.888 31.4501 122.002 31.4115 122.12 31.396C122.237 31.3804 122.357 31.3882 122.472 31.4189C122.587 31.4496 122.694 31.5026 122.788 31.5748L122.789 31.575L122.769 31.6019L122.789 31.575C122.979 31.7212 123.104 31.9368 123.135 32.1746C123.166 32.4124 123.102 32.6529 122.956 32.8433L119.291 37.6232C119.206 37.7334 119.097 37.8225 118.972 37.8837C118.848 37.9449 118.71 37.9765 118.571 37.9761L118.57 37.9772Z" fill="white"/>
<path d="M90.3415 69.9109H8.47229C6.3579 69.9109 4.33012 69.0709 2.83502 67.5758C1.33993 66.0808 0.5 64.053 0.5 61.9386C0.5 59.8242 1.33993 57.7964 2.83502 56.3013C4.33012 54.8062 6.3579 53.9663 8.47229 53.9663H90.3415C92.4559 53.9663 94.4837 54.8062 95.9788 56.3013C97.4739 57.7964 98.3138 59.8242 98.3138 61.9386C98.3138 64.053 97.4739 66.0808 95.9788 67.5758C94.4837 69.0709 92.4559 69.9109 90.3415 69.9109Z" fill="#E6E6E6"/>
<path d="M8.47241 56.5728C7.04927 56.5728 5.68442 57.1381 4.6781 58.1444C3.67179 59.1507 3.10645 60.5156 3.10645 61.9387C3.10645 63.3619 3.67179 64.7267 4.6781 65.733C5.68442 66.7393 7.04927 67.3047 8.47241 67.3047H90.3417C91.7648 67.3047 93.1297 66.7393 94.136 65.733C95.1423 64.7267 95.7076 63.3619 95.7076 61.9387C95.7076 60.5156 95.1423 59.1507 94.136 58.1444C93.1297 57.1381 91.7648 56.5728 90.3417 56.5728H8.47241Z" fill="white"/>
<path d="M119.273 54.4819C117.31 54.4819 115.426 55.262 114.038 56.6504C112.649 58.0389 111.869 59.922 111.869 61.8856C111.869 63.8492 112.649 65.7324 114.038 67.1208C115.426 68.5093 117.309 69.2893 119.273 69.2893C121.237 69.2893 123.12 68.5093 124.508 67.1208C125.897 65.7324 126.677 63.8492 126.677 61.8856C126.677 59.9221 125.897 58.0389 124.508 56.6504C123.12 55.262 121.237 54.4819 119.273 54.4819Z" fill="#E6E6E6"/>
<path d="M211.193 156.533H147.108C147.027 156.533 146.949 156.5 146.892 156.443C146.834 156.385 146.802 156.307 146.802 156.226C146.802 156.145 146.834 156.067 146.892 156.009C146.949 155.952 147.027 155.919 147.108 155.919H211.193C211.275 155.919 211.353 155.952 211.41 156.009C211.468 156.067 211.5 156.145 211.5 156.226C211.5 156.307 211.468 156.385 211.41 156.443C211.353 156.5 211.275 156.533 211.193 156.533Z" fill="#CCCCCC"/>
</g>
<defs>
<clipPath id="clip0_145_8682">
<rect width="211" height="156.533" fill="white" transform="translate(0.5)"/>
</clipPath>
</defs>
</svg>
